<mxfile host="65bd71144e">
    <diagram id="KjG14Q_7bZ2Fs4syXYFA" name="Top Down">
        <mxGraphModel dx="1074" dy="741" grid="1" gridSize="10" guides="1" tooltips="1" connect="1" arrows="1" fold="1" page="1" pageScale="1" pageWidth="827" pageHeight="1169" math="0" shadow="0">
            <root>
                <mxCell id="0"/>
                <mxCell id="1" parent="0"/>
                <mxCell id="QtO_xw6DOo0jZK6YUWM9-8" value="" style="edgeStyle=none;html=1;" parent="1" source="QtO_xw6DOo0jZK6YUWM9-1" target="QtO_xw6DOo0jZK6YUWM9-3" edge="1">
                    <mxGeometry relative="1" as="geometry"/>
                </mxCell>
                <mxCell id="QtO_xw6DOo0jZK6YUWM9-9" style="edgeStyle=orthogonalEdgeStyle;html=1;entryX=0.5;entryY=0;entryDx=0;entryDy=0;rounded=0;" parent="1" source="QtO_xw6DOo0jZK6YUWM9-1" target="QtO_xw6DOo0jZK6YUWM9-2" edge="1">
                    <mxGeometry relative="1" as="geometry">
                        <Array as="points">
                            <mxPoint x="414" y="160"/>
                            <mxPoint x="260" y="160"/>
                        </Array>
                    </mxGeometry>
                </mxCell>
                <mxCell id="QtO_xw6DOo0jZK6YUWM9-10" style="edgeStyle=orthogonalEdgeStyle;html=1;entryX=0.5;entryY=0;entryDx=0;entryDy=0;rounded=0;" parent="1" source="QtO_xw6DOo0jZK6YUWM9-1" target="QtO_xw6DOo0jZK6YUWM9-4" edge="1">
                    <mxGeometry relative="1" as="geometry">
                        <Array as="points">
                            <mxPoint x="414" y="160"/>
                            <mxPoint x="570" y="160"/>
                        </Array>
                    </mxGeometry>
                </mxCell>
                <mxCell id="QtO_xw6DOo0jZK6YUWM9-1" value="Month Number" style="rounded=0;whiteSpace=wrap;html=1;" parent="1" vertex="1">
                    <mxGeometry x="354" y="80" width="120" height="60" as="geometry"/>
                </mxCell>
                <mxCell id="QtO_xw6DOo0jZK6YUWM9-11" value="" style="edgeStyle=orthogonalEdgeStyle;rounded=0;html=1;" parent="1" source="QtO_xw6DOo0jZK6YUWM9-2" target="QtO_xw6DOo0jZK6YUWM9-5" edge="1">
                    <mxGeometry relative="1" as="geometry"/>
                </mxCell>
                <mxCell id="QtO_xw6DOo0jZK6YUWM9-2" value="Input" style="rounded=0;whiteSpace=wrap;html=1;" parent="1" vertex="1">
                    <mxGeometry x="200" y="180" width="120" height="60" as="geometry"/>
                </mxCell>
                <mxCell id="QtO_xw6DOo0jZK6YUWM9-12" value="" style="edgeStyle=orthogonalEdgeStyle;rounded=0;html=1;" parent="1" source="QtO_xw6DOo0jZK6YUWM9-3" target="QtO_xw6DOo0jZK6YUWM9-6" edge="1">
                    <mxGeometry relative="1" as="geometry"/>
                </mxCell>
                <mxCell id="QtO_xw6DOo0jZK6YUWM9-3" value="Process" style="rounded=0;whiteSpace=wrap;html=1;" parent="1" vertex="1">
                    <mxGeometry x="354" y="180" width="120" height="60" as="geometry"/>
                </mxCell>
                <mxCell id="QtO_xw6DOo0jZK6YUWM9-13" value="" style="edgeStyle=orthogonalEdgeStyle;rounded=0;html=1;" parent="1" source="QtO_xw6DOo0jZK6YUWM9-4" target="QtO_xw6DOo0jZK6YUWM9-7" edge="1">
                    <mxGeometry relative="1" as="geometry"/>
                </mxCell>
                <mxCell id="QtO_xw6DOo0jZK6YUWM9-4" value="output" style="rounded=0;whiteSpace=wrap;html=1;" parent="1" vertex="1">
                    <mxGeometry x="510" y="180" width="120" height="60" as="geometry"/>
                </mxCell>
                <mxCell id="QtO_xw6DOo0jZK6YUWM9-5" value="Get month_number" style="rounded=0;whiteSpace=wrap;html=1;" parent="1" vertex="1">
                    <mxGeometry x="200" y="280" width="120" height="60" as="geometry"/>
                </mxCell>
                <mxCell id="QtO_xw6DOo0jZK6YUWM9-6" value="Decide which month" style="rounded=0;whiteSpace=wrap;html=1;" parent="1" vertex="1">
                    <mxGeometry x="354" y="280" width="120" height="60" as="geometry"/>
                </mxCell>
                <mxCell id="QtO_xw6DOo0jZK6YUWM9-7" value="Display month" style="rounded=0;whiteSpace=wrap;html=1;" parent="1" vertex="1">
                    <mxGeometry x="510" y="280" width="120" height="60" as="geometry"/>
                </mxCell>
            </root>
        </mxGraphModel>
    </diagram>
    <diagram id="aqkya4TFRdpiTSBKbrii" name="Flowchart">
        <mxGraphModel dx="1074" dy="741" grid="1" gridSize="10" guides="1" tooltips="1" connect="1" arrows="1" fold="1" page="1" pageScale="1" pageWidth="827" pageHeight="1169" math="0" shadow="0">
            <root>
                <mxCell id="7Z-LrOooxTyzb09muiCP-0"/>
                <mxCell id="7Z-LrOooxTyzb09muiCP-1" parent="7Z-LrOooxTyzb09muiCP-0"/>
                <mxCell id="7Z-LrOooxTyzb09muiCP-7" value="" style="edgeStyle=none;html=1;" parent="7Z-LrOooxTyzb09muiCP-1" source="7Z-LrOooxTyzb09muiCP-2" target="7Z-LrOooxTyzb09muiCP-3" edge="1">
                    <mxGeometry relative="1" as="geometry"/>
                </mxCell>
                <mxCell id="7Z-LrOooxTyzb09muiCP-2" value="Start" style="strokeWidth=2;html=1;shape=mxgraph.flowchart.terminator;whiteSpace=wrap;" parent="7Z-LrOooxTyzb09muiCP-1" vertex="1">
                    <mxGeometry x="364" y="80" width="100" height="60" as="geometry"/>
                </mxCell>
                <mxCell id="1" value="" style="edgeStyle=none;html=1;" edge="1" parent="7Z-LrOooxTyzb09muiCP-1" source="7Z-LrOooxTyzb09muiCP-3" target="0">
                    <mxGeometry relative="1" as="geometry"/>
                </mxCell>
                <mxCell id="7Z-LrOooxTyzb09muiCP-3" value="Get month number" style="shape=parallelogram;html=1;strokeWidth=2;perimeter=parallelogramPerimeter;whiteSpace=wrap;rounded=1;arcSize=12;size=0.23;" parent="7Z-LrOooxTyzb09muiCP-1" vertex="1">
                    <mxGeometry x="331" y="170" width="166" height="60" as="geometry"/>
                </mxCell>
                <mxCell id="5" style="edgeStyle=orthogonalEdgeStyle;html=1;entryX=0;entryY=0.5;entryDx=0;entryDy=0;rounded=0;" edge="1" parent="7Z-LrOooxTyzb09muiCP-1" source="0">
                    <mxGeometry relative="1" as="geometry">
                        <mxPoint x="516.0900000000001" y="410" as="targetPoint"/>
                        <Array as="points">
                            <mxPoint x="414" y="410"/>
                        </Array>
                    </mxGeometry>
                </mxCell>
                <mxCell id="6" style="edgeStyle=orthogonalEdgeStyle;rounded=0;html=1;entryX=0;entryY=0.5;entryDx=0;entryDy=0;" edge="1" parent="7Z-LrOooxTyzb09muiCP-1" source="0">
                    <mxGeometry relative="1" as="geometry">
                        <mxPoint x="516.0900000000001" y="500" as="targetPoint"/>
                        <Array as="points">
                            <mxPoint x="414" y="500"/>
                        </Array>
                    </mxGeometry>
                </mxCell>
                <mxCell id="7" style="edgeStyle=orthogonalEdgeStyle;rounded=0;html=1;entryX=0;entryY=0.5;entryDx=0;entryDy=0;" edge="1" parent="7Z-LrOooxTyzb09muiCP-1" source="0">
                    <mxGeometry relative="1" as="geometry">
                        <mxPoint x="516.0900000000001" y="621" as="targetPoint"/>
                        <Array as="points">
                            <mxPoint x="414" y="621"/>
                        </Array>
                    </mxGeometry>
                </mxCell>
                <mxCell id="12" style="edgeStyle=orthogonalEdgeStyle;rounded=0;html=1;entryX=0;entryY=0.5;entryDx=0;entryDy=0;" edge="1" parent="7Z-LrOooxTyzb09muiCP-1" source="0">
                    <mxGeometry relative="1" as="geometry">
                        <mxPoint x="516.0900000000001" y="710" as="targetPoint"/>
                        <Array as="points">
                            <mxPoint x="414" y="710"/>
                        </Array>
                    </mxGeometry>
                </mxCell>
                <mxCell id="0" value="month number" style="strokeWidth=2;html=1;shape=mxgraph.flowchart.decision;whiteSpace=wrap;" vertex="1" parent="7Z-LrOooxTyzb09muiCP-1">
                    <mxGeometry x="364" y="260" width="100" height="100" as="geometry"/>
                </mxCell>
                <mxCell id="8" value="1" style="text;html=1;align=center;verticalAlign=middle;resizable=0;points=[];autosize=1;strokeColor=none;fillColor=none;" vertex="1" parent="7Z-LrOooxTyzb09muiCP-1">
                    <mxGeometry x="420" y="380" width="20" height="20" as="geometry"/>
                </mxCell>
                <mxCell id="9" value="2" style="text;html=1;align=center;verticalAlign=middle;resizable=0;points=[];autosize=1;strokeColor=none;fillColor=none;" vertex="1" parent="7Z-LrOooxTyzb09muiCP-1">
                    <mxGeometry x="420" y="470" width="20" height="20" as="geometry"/>
                </mxCell>
                <mxCell id="10" value="12" style="text;html=1;align=center;verticalAlign=middle;resizable=0;points=[];autosize=1;strokeColor=none;fillColor=none;" vertex="1" parent="7Z-LrOooxTyzb09muiCP-1">
                    <mxGeometry x="420" y="591" width="30" height="20" as="geometry"/>
                </mxCell>
                <mxCell id="20" style="edgeStyle=orthogonalEdgeStyle;rounded=0;html=1;entryX=0.5;entryY=0;entryDx=0;entryDy=0;entryPerimeter=0;" edge="1" parent="7Z-LrOooxTyzb09muiCP-1" target="19">
                    <mxGeometry relative="1" as="geometry">
                        <mxPoint x="640" y="410" as="sourcePoint"/>
                    </mxGeometry>
                </mxCell>
                <mxCell id="21" style="edgeStyle=orthogonalEdgeStyle;rounded=0;html=1;entryX=0.5;entryY=0;entryDx=0;entryDy=0;entryPerimeter=0;" edge="1" parent="7Z-LrOooxTyzb09muiCP-1" target="19">
                    <mxGeometry relative="1" as="geometry">
                        <mxPoint x="640" y="500" as="sourcePoint"/>
                    </mxGeometry>
                </mxCell>
                <mxCell id="22" style="edgeStyle=orthogonalEdgeStyle;rounded=0;html=1;entryX=0.5;entryY=0;entryDx=0;entryDy=0;entryPerimeter=0;" edge="1" parent="7Z-LrOooxTyzb09muiCP-1" target="19">
                    <mxGeometry relative="1" as="geometry">
                        <mxPoint x="700" y="750" as="targetPoint"/>
                        <mxPoint x="640" y="621" as="sourcePoint"/>
                    </mxGeometry>
                </mxCell>
                <mxCell id="23" style="edgeStyle=orthogonalEdgeStyle;rounded=0;html=1;" edge="1" parent="7Z-LrOooxTyzb09muiCP-1">
                    <mxGeometry relative="1" as="geometry">
                        <mxPoint x="700" y="760" as="targetPoint"/>
                        <mxPoint x="640" y="710" as="sourcePoint"/>
                    </mxGeometry>
                </mxCell>
                <mxCell id="18" value="Default" style="text;html=1;align=center;verticalAlign=middle;resizable=0;points=[];autosize=1;strokeColor=none;fillColor=none;" vertex="1" parent="7Z-LrOooxTyzb09muiCP-1">
                    <mxGeometry x="420" y="680" width="50" height="20" as="geometry"/>
                </mxCell>
                <mxCell id="19" value="Stop" style="strokeWidth=2;html=1;shape=mxgraph.flowchart.terminator;whiteSpace=wrap;" vertex="1" parent="7Z-LrOooxTyzb09muiCP-1">
                    <mxGeometry x="650" y="760" width="100" height="60" as="geometry"/>
                </mxCell>
                <mxCell id="24" value="..." style="text;html=1;align=center;verticalAlign=middle;resizable=0;points=[];autosize=1;strokeColor=none;fillColor=none;" vertex="1" parent="7Z-LrOooxTyzb09muiCP-1">
                    <mxGeometry x="425" y="540" width="20" height="20" as="geometry"/>
                </mxCell>
                <mxCell id="25" value="&lt;span&gt;print &quot;January&quot;&lt;/span&gt;" style="shape=parallelogram;perimeter=parallelogramPerimeter;whiteSpace=wrap;html=1;fixedSize=1;" vertex="1" parent="7Z-LrOooxTyzb09muiCP-1">
                    <mxGeometry x="520" y="380" width="120" height="60" as="geometry"/>
                </mxCell>
                <mxCell id="26" value="&lt;span&gt;print &quot;February&quot;&lt;/span&gt;" style="shape=parallelogram;perimeter=parallelogramPerimeter;whiteSpace=wrap;html=1;fixedSize=1;" vertex="1" parent="7Z-LrOooxTyzb09muiCP-1">
                    <mxGeometry x="520" y="470" width="120" height="60" as="geometry"/>
                </mxCell>
                <mxCell id="27" value="&lt;span&gt;print &quot;December&quot;&lt;/span&gt;" style="shape=parallelogram;perimeter=parallelogramPerimeter;whiteSpace=wrap;html=1;fixedSize=1;" vertex="1" parent="7Z-LrOooxTyzb09muiCP-1">
                    <mxGeometry x="520" y="591" width="120" height="60" as="geometry"/>
                </mxCell>
                <mxCell id="28" value="&lt;span&gt;print &quot;Invalid Input&quot;&lt;/span&gt;" style="shape=parallelogram;perimeter=parallelogramPerimeter;whiteSpace=wrap;html=1;fixedSize=1;" vertex="1" parent="7Z-LrOooxTyzb09muiCP-1">
                    <mxGeometry x="510" y="680" width="130" height="60" as="geometry"/>
                </mxCell>
            </root>
        </mxGraphModel>
    </diagram>
</mxfile>